<svg xmlns="http://www.w3.org/2000/svg" xmlns:ev="http://www.w3.org/2001/xml-events" xmlns:xlink="http://www.w3.org/1999/xlink" width="1231.67" height="1045.67" class="st20" color-interpolation-filters="sRGB" viewBox="0 0 923.75 784.25" xml:space="preserve"><style type="text/css">.st1,.st2{fill:#fff;stroke:none;stroke-linecap:round;stroke-linejoin:round;stroke-width:1.25}.st2{stroke:#000}.st3{fill:#000;font-family:Liberation Sans;font-size:1.16666em}.st4{fill:#dbeef3;stroke:#000;stroke-linecap:round;stroke-linejoin:round;stroke-width:1}.st5{fill:#000;font-family:Liberation Sans;font-size:.999207em}.st6,.st7{fill:#dbeef3;stroke:#000;stroke-linecap:round;stroke-linejoin:round;stroke-width:.75}.st7{stroke-width:.24}.st8{font-size:1em}.st9{marker-end:url(#mrkr2-32);marker-start:url(#mrkr2-30);stroke:#000;stroke-linecap:round;stroke-linejoin:round;stroke-width:.75}.st10{fill:#000;fill-opacity:1;stroke:#000;stroke-opacity:1;stroke-width:.22935779816514}.st11{fill:#000;font-family:Liberation Sans;font-size:.958328em}.st12{font-size:.833998em}.st13,.st14{fill:none;stroke:none;stroke-linecap:round;stroke-linejoin:round;stroke-width:.75}.st14{fill:#dbeef3;stroke:#000;stroke-width:.25}.st15{fill:#000;font-family:Liberation Sans;font-size:1.00001em}.st16{font-size:.83333em}.st17{font-size:.714294em}.st18{marker-end:url(#mrkr2-32);stroke:#000;stroke-linecap:round;stroke-linejoin:round;stroke-width:.75}.st19{font-size:1em;font-weight:700}.st20{fill:none;fill-rule:evenodd;font-size:12px;overflow:visible;stroke-linecap:square;stroke-miterlimit:3}</style><defs id="Markers"><g id="lend2"><path d="M 1 1 L 0 0 L 1 -1 L 1 1" style="stroke:none"/></g><marker id="mrkr2-30" class="st10" markerUnits="strokeWidth" orient="auto" overflow="visible" refX="3.88"><use transform="scale(4.36)" xlink:href="#lend2"/></marker><marker id="mrkr2-32" class="st10" markerUnits="strokeWidth" orient="auto" overflow="visible" refX="-3.88"><use transform="scale(-4.36,-4.36)" xlink:href="#lend2"/></marker></defs><g><title>Page-1</title><g id="shape383-1" transform="translate(18.625,-18.625)"><title>Rectangle.383</title><rect width="886.5" height="747" x="0" y="37.25" class="st1"/></g><g id="shape324-3" transform="translate(41.125,-225.625)"><title>Rectangle.324</title><desc>Motherboard</desc><rect width="288" height="258.75" x="0" y="525.5" class="st2"/><text x="104.31" y="542.1" class="st3">Motherboard</text></g><g id="shape315-6" transform="translate(54.625,-344.875)"><title>Rectangle.315</title><desc>bus</desc><rect width="166.5" height="103.5" x="0" y="680.75" class="st4"/><text x="73.58" y="695.54" class="st5">bus</text></g><g id="shape306-9" transform="translate(63.625,-378.625)"><title>Rectangle</title><desc>0x20_0000 – 0x2f_ffff</desc><rect width="148.5" height="18" x="0" y="766.25" class="st6"/><text x="16.58" y="778.85" class="st5">0x20_0000 – 0x2f_ffff</text></g><g id="shape307-12" transform="translate(248.125,-367.375)"><title>Rectangle.307</title><desc>Socket B</desc><rect width="67.5" height="27" x="0" y="757.25" class="st7"/><text x="5.74" y="774.95" class="st3">Socket B</text></g><g id="shape310-15" transform="translate(248.125,-403.375)"><title>Rectangle.310</title><desc>Socket A</desc><rect width="67.5" height="27" x="0" y="757.25" class="st7"/><text x="5.74" y="774.95" class="st3">Socket <tspan class="st8">A</tspan></text></g><g id="shape311-19" transform="translate(63.625,-405.625)"><title>Rectangle.311</title><desc>0x10_0000 – 0x1f_ffff</desc><rect width="148.5" height="18" x="0" y="766.25" class="st6"/><text x="16.58" y="778.85" class="st5">0x<tspan class="st8">1</tspan>0_0000 – 0x<tspan class="st8">1</tspan>f_ffff</text></g><g id="shape312-24" transform="translate(261.045,1152.35) rotate(-3.57633) scale(1,-1)"><title>Curve connect 1.312</title><path d="M2.83 784.93 L3.18 785.02 A35.1772 35.1772 -180 0 0 19.67 784.25 A29.3143 29.3143 0 0 1 32.88 783.51 L33.24 783.59" class="st9"/></g><g id="shape313-33" transform="translate(63.625,-351.625)"><title>Rectangle.313</title><desc>0x3000 – 0x37ff</desc><rect width="148.5" height="18" x="0" y="766.25" class="st6"/><text x="31.58" y="778.85" class="st5">0x3000 <tspan class="st8">–</tspan> 0x37ff</text></g><g id="shape318-37" transform="translate(356.653,-374.193) rotate(10.6197)"><title>Curve connect 1.318</title><path d="M2.83 784.92 L3.18 785.01 A36.2503 36.2503 -180 0 0 19.98 784.25 A30.2086 30.2086 0 0 1 33.44 783.52 L33.79 783.6" class="st9"/></g><g id="shape320-44" transform="translate(54.625,-234)"><title>Rectangle.320</title><desc>CS childPointers:</desc><rect width="261" height="83.25" x="0" y="701" class="st6"/><text x="10.39" y="715.35" class="st11">CS<tspan x="4" class="st8" dy="1.2em"> </tspan>childPointers:</text></g><g id="shape323-48" transform="translate(533.704,-237.654) rotate(30.313)"><title>Curve connect 1.323</title><path d="M1.69 786.62 L1.9 786.91 A17.244 17.244 -180 0 0 29.85 784.25 A14.37 14.37 0 0 1 52.78 781.62 L53 781.91" class="st9"/></g><g id="shape325-55" transform="translate(383.125,-387)"><title>Rectangle.325</title><desc>Daughterboard 0</desc><rect width="288" height="266.125" x="0" y="518.125" class="st2"/><text x="91.46" y="534.73" class="st3">Daughterboard 0</text></g><g id="shape326-58" transform="translate(394.375,-493.375)"><title>Rectangle.326</title><desc>bus offsets</desc><rect width="166.5" height="126" x="0" y="658.25" class="st4"/><text x="54.26" y="673.04" class="st5">bus offsets</text></g><g id="shape327-61" transform="translate(403.375,-533.875)"><title>Rectangle.327</title><desc>0x2_0000 – 0x2_ffff (0x12_0000)</desc><rect width="148.5" height="27" x="0" y="757.25" class="st6"/><text x="21.58" y="768.35" class="st5">0x2_0000 – 0x2_ffff<tspan x="46.17" class="st12" dy="1.26em">(</tspan><tspan class="st12">0</tspan><tspan class="st12">x</tspan><tspan class="st12">12</tspan><tspan class="st12">_</tspan><tspan class="st12">0000</tspan><tspan class="st12">)</tspan></text></g><g id="shape328-71" transform="translate(583.375,-529.375)"><title>Rectangle.328</title><desc>Socket 1</desc><rect width="67.5" height="27" x="0" y="757.25" class="st7"/><text x="6.51" y="774.95" class="st3">Socket 1</text></g><g id="shape329-74" transform="translate(583.375,-565.375)"><title>Rectangle.329</title><desc>Socket 0</desc><rect width="67.5" height="27" x="0" y="757.25" class="st7"/><text x="6.51" y="774.95" class="st3">Socket 0</text></g><g id="shape330-77" transform="translate(403.375,-567.625)"><title>Rectangle.330</title><desc>0x1_0000 – 0x1_ffff (0x11_0000)</desc><rect width="148.5" height="27" x="0" y="757.25" class="st6"/><text x="21.58" y="768.35" class="st5">0x<tspan class="st8">1</tspan>_0000 – 0x<tspan class="st8">1</tspan>_ffff<tspan x="46.17" class="st12" dy="1.26em">(</tspan><tspan class="st12">0</tspan><tspan class="st12">x</tspan><tspan class="st12">11</tspan><tspan class="st12">_</tspan><tspan class="st12">0000</tspan><tspan class="st12">)</tspan></text></g><g id="shape331-89" transform="translate(607.75,-579.132) rotate(4.08562)"><title>Curve connect 1.331</title><path d="M2.81 785.01 L3.16 785.1 A27.1284 27.1284 -180 0 0 17.23 784.25 A22.607 22.607 0 0 1 28.41 783.44 L28.76 783.53" class="st9"/></g><g id="shape332-96" transform="translate(403.375,-500.125)"><title>Rectangle.332</title><desc>0x3000 – 0x37ff (0x10_3000)</desc><rect width="148.5" height="27" x="0" y="757.25" class="st6"/><text x="31.58" y="768.35" class="st5">0x3000 <tspan class="st8">–</tspan> 0x37ff<tspan x="46.17" class="st12" dy="1.26em">(</tspan><tspan class="st12">0</tspan><tspan class="st12">x</tspan><tspan class="st12">10</tspan><tspan class="st12">_</tspan><tspan class="st12">3000</tspan><tspan class="st12">)</tspan></text></g><g id="shape333-107" transform="translate(662.785,-539.493) rotate(8.1301)"><title>Curve connect 1.333</title><path d="M2.81 785 L3.16 785.09 A27.5309 27.5309 -180 0 0 17.36 784.25 A22.9424 22.9424 0 0 1 28.65 783.44 L29 783.53" class="st9"/></g><g id="shape335-114" transform="translate(394.375,-396)"><title>Rectangle.335</title><desc>CS childPointers:</desc><rect width="261" height="79.375" x="0" y="704.875" class="st6"/><text x="10.39" y="719.23" class="st11">CS<tspan x="4" class="st8" dy="1.2em"> </tspan>childPointers:</text></g><g id="shape336-118" transform="translate(756.814,-441.997) rotate(20.8545)"><title>Curve connect 1.336</title><path d="M1.55 786.71 L1.74 787.02 A15.3473 15.3473 -180 0 0 27.58 784.25 A12.7894 12.7894 0 0 1 48.76 781.52 L48.96 781.82" class="st9"/></g><g id="shape337-125" transform="translate(998.569,752.908) rotate(-60.5546) scale(1,-1)"><title>Curve connect 1.337</title><path d="M2.39 782.59 L2.69 782.39 A74.2884 74.2884 0 0 1 87.38 784.25 A61.907 61.907 -180 0 0 157.5 786.1 L157.8 785.9" class="st9"/></g><g id="shape338-132" transform="translate(383.125,-81)"><title>Rectangle.338</title><desc>Daughterboard 1</desc><rect width="288" height="266.125" x="0" y="518.125" class="st2"/><text x="91.46" y="534.73" class="st3">Daughterboard 1</text></g><g id="shape339-135" transform="translate(394.375,-187.375)"><title>Rectangle.339</title><desc>Bus offsets</desc><rect width="166.5" height="126" x="0" y="658.25" class="st4"/><text x="53.59" y="673.04" class="st5">Bus offsets</text></g><g id="shape340-138" transform="translate(403.375,-227.875)"><title>Rectangle.340</title><desc>0x2_0000 – 0x2_ffff (0x22_0000)</desc><rect width="148.5" height="27" x="0" y="757.25" class="st6"/><text x="21.58" y="768.35" class="st5">0x2_0000 – 0x2_ffff<tspan x="46.17" class="st12" dy="1.26em">(</tspan><tspan class="st12">0</tspan><tspan class="st12">x</tspan><tspan class="st12">22</tspan><tspan class="st12">_</tspan><tspan class="st12">0000</tspan><tspan class="st12">)</tspan></text></g><g id="shape341-148" transform="translate(583.375,-223.375)"><title>Rectangle.341</title><desc>Socket 1</desc><rect width="67.5" height="27" x="0" y="757.25" class="st7"/><text x="6.51" y="774.95" class="st3">Socket 1</text></g><g id="shape342-151" transform="translate(583.375,-259.375)"><title>Rectangle.342</title><desc>Socket 0</desc><rect width="67.5" height="27" x="0" y="757.25" class="st7"/><text x="6.51" y="774.95" class="st3">Socket 0</text></g><g id="shape343-154" transform="translate(403.375,-261.625)"><title>Rectangle.343</title><desc>0x1_0000 – 0x1_ffff (0x21_0000)</desc><rect width="148.5" height="27" x="0" y="757.25" class="st6"/><text x="21.58" y="768.35" class="st5">0x<tspan class="st8">1</tspan>_0000 – 0x<tspan class="st8">1</tspan>_ffff<tspan x="46.17" class="st12" dy="1.26em">(</tspan><tspan class="st12">0</tspan><tspan class="st12">x</tspan><tspan class="st12">21</tspan><tspan class="st12">_</tspan><tspan class="st12">0000</tspan><tspan class="st12">)</tspan></text></g><g id="shape344-166" transform="translate(607.75,-273.132) rotate(4.08562)"><title>Curve connect 1.344</title><path d="M2.81 785.01 L3.16 785.1 A27.1284 27.1284 -180 0 0 17.23 784.25 A22.607 22.607 0 0 1 28.41 783.44 L28.76 783.53" class="st9"/></g><g id="shape345-173" transform="translate(403.375,-194.125)"><title>Rectangle.345</title><desc>0x3000 – 0x37ff (0x20_3000)</desc><rect width="148.5" height="27" x="0" y="757.25" class="st6"/><text x="31.58" y="768.35" class="st5">0x3000 <tspan class="st8">–</tspan> 0x37ff<tspan x="46.17" class="st12" dy="1.26em">(</tspan><tspan class="st12">0</tspan><tspan class="st12">x</tspan><tspan class="st12">20</tspan><tspan class="st12">_</tspan><tspan class="st12">3000</tspan><tspan class="st12">)</tspan></text></g><g id="shape346-184" transform="translate(662.785,-233.493) rotate(8.1301)"><title>Curve connect 1.346</title><path d="M2.81 785 L3.16 785.09 A27.5309 27.5309 -180 0 0 17.36 784.25 A22.9424 22.9424 0 0 1 28.65 783.44 L29 783.53" class="st9"/></g><g id="shape348-191" transform="translate(394.375,-92.25)"><title>Rectangle.348</title><desc>CS childPointers:</desc><rect width="261" height="77.125" x="0" y="707.125" class="st6"/><text x="10.39" y="721.48" class="st11">CS<tspan x="4" class="st8" dy="1.2em"> </tspan>childPointers:</text></g><g id="shape349-195" transform="translate(756.814,-135.997) rotate(20.8545)"><title>Curve connect 1.349</title><path d="M1.55 786.71 L1.74 787.02 A15.3473 15.3473 -180 0 0 27.58 784.25 A12.7894 12.7894 0 0 1 48.76 781.52 L48.96 781.82" class="st9"/></g><g id="shape350-202" transform="translate(707.125,-533.261)"><title>Rectangle.350</title><rect width="180" height="204.75" x="0" y="579.5" class="st2"/></g><g id="shape351-204" transform="translate(722.875,-702.011)"><title>Rectangle.351</title><desc>Single-hart server processor</desc><rect width="148.5" height="27" x="0" y="757.25" class="st13"/><text x="19.01" y="766.55" class="st3">Single-hart server <tspan x="43.52" class="st8" dy="1.2em">processor</tspan></text></g><g id="shape352-208" transform="translate(725.125,-666.011)"><title>Rectangle.352</title><desc>mconfigptr: 0x3000</desc><rect width="148.5" height="27" x="0" y="757.25" class="st7"/><text x="14.72" y="774.95" class="st3">mconfigptr: 0x3000</text></g><g id="shape354-211" transform="translate(725.125,-595.136)"><title>Rectangle.354</title><desc>bus offsets</desc><rect width="148.5" height="61.875" x="0" y="722.375" class="st14"/><text x="45.23" y="737.18" class="st15">bus offsets</text></g><g id="shape355-214" transform="translate(731.875,-598.511)"><title>Rectangle.355</title><desc>0x3000-0x37ff (0x11_3000)</desc><rect width="135" height="39.938" x="0" y="744.313" class="st14"/><text x="29.47" y="760.68" class="st15">0x3000-0x37ff<tspan x="39.42" class="st16" dy="1.44em">(</tspan><tspan class="st16">0</tspan><tspan class="st16">x</tspan><tspan class="st16">11</tspan><tspan class="st16">_</tspan><tspan class="st16">3000</tspan><tspan class="st16">)</tspan></text></g><g id="shape356-224" transform="translate(725.125,-546.761)"><title>Rectangle.356</title><desc>CS hartid 0</desc><rect width="148.5" height="39.938" x="0" y="744.313" class="st14"/><text x="4" y="760.68" class="st15">CS<tspan x="4" class="st8" dy="1.2em">hartid </tspan>0</text></g><g id="shape357-228" transform="translate(1071.6,867.223) rotate(-32.4431) scale(1,-1)"><title>Curve connect 1.357</title><path d="M1.87 782.02 L2.1 781.75 A36.2632 36.2632 0 0 1 57.57 784.25 A19.1606 19.1606 -180 0 0 85.78 786.67 L86.02 786.4" class="st9"/></g><g id="shape358-235" transform="translate(707.125,-252.062)"><title>Rectangle.358</title><rect width="180" height="204.75" x="0" y="579.5" class="st2"/></g><g id="shape359-237" transform="translate(722.875,-420.812)"><title>Rectangle.359</title><desc>8-hart vector processor</desc><rect width="148.5" height="27" x="0" y="757.25" class="st13"/><text x="55.96" y="766.55" class="st3">8-hart<tspan x="22.51" class="st8" dy="1.2em">vector processor</tspan></text></g><g id="shape360-241" transform="translate(725.125,-384.812)"><title>Rectangle.360</title><desc>mconfigptr: 0x3000</desc><rect width="148.5" height="27" x="0" y="757.25" class="st7"/><text x="14.72" y="774.95" class="st3">mconfigptr: 0x3000</text></g><g id="shape361-244" transform="translate(725.125,-313.937)"><title>Rectangle.361</title><desc>bus offsets</desc><rect width="148.5" height="61.875" x="0" y="722.375" class="st14"/><text x="45.23" y="737.18" class="st15">bus offsets</text></g><g id="shape362-247" transform="translate(731.875,-317.312)"><title>Rectangle.362</title><desc>0x3000-0x37ff (0x21_3000)</desc><rect width="135" height="39.938" x="0" y="744.313" class="st14"/><text x="29.47" y="760.68" class="st15">0x3000-0x37ff<tspan x="39.42" class="st16" dy="1.44em">(</tspan><tspan class="st16">0</tspan><tspan class="st16">x</tspan><tspan class="st16">21</tspan><tspan class="st16">_</tspan><tspan class="st16">3000</tspan><tspan class="st16">)</tspan></text></g><g id="shape363-257" transform="translate(725.125,-265.563)"><title>Rectangle.363</title><desc>CS hartid 0-7</desc><rect width="148.5" height="39.938" x="0" y="744.313" class="st14"/><text x="4" y="760.68" class="st15">CS<tspan x="4" class="st8" dy="1.2em">hartid </tspan>0-7</text></g><g id="shape364-261" transform="translate(707.125,-30.4375)"><title>Rectangle.364</title><rect width="180" height="204.75" x="0" y="579.5" class="st2"/></g><g id="shape365-263" transform="translate(722.875,-199.187)"><title>Rectangle.365</title><desc>8-hart vector processor</desc><rect width="148.5" height="27" x="0" y="757.25" class="st13"/><text x="55.96" y="766.55" class="st3">8-hart<tspan x="22.51" class="st8" dy="1.2em">vector processor</tspan></text></g><g id="shape366-267" transform="translate(725.125,-163.187)"><title>Rectangle.366</title><desc>mconfigptr: 0x3000</desc><rect width="148.5" height="27" x="0" y="757.25" class="st7"/><text x="14.72" y="774.95" class="st3">mconfigptr: 0x3000</text></g><g id="shape367-270" transform="translate(725.125,-92.3125)"><title>Rectangle.367</title><desc>bus offsets</desc><rect width="148.5" height="61.875" x="0" y="722.375" class="st14"/><text x="45.23" y="737.18" class="st15">bus offsets</text></g><g id="shape368-273" transform="translate(731.875,-95.6875)"><title>Rectangle.368</title><desc>0x3000-0x37ff (0x22_3000)</desc><rect width="135" height="39.938" x="0" y="744.313" class="st14"/><text x="29.47" y="760.68" class="st15">0x3000-0x37ff<tspan x="39.42" class="st16" dy="1.44em">(</tspan><tspan class="st16">0</tspan><tspan class="st16">x</tspan><tspan class="st16">22</tspan><tspan class="st16">_</tspan><tspan class="st16">3000</tspan><tspan class="st16">)</tspan></text></g><g id="shape369-283" transform="translate(725.125,-43.9375)"><title>Rectangle.369</title><desc>CS hartid 0-7</desc><rect width="148.5" height="39.938" x="0" y="744.313" class="st14"/><text x="4" y="760.68" class="st15">CS<tspan x="4" class="st8" dy="1.2em">hartid </tspan>0-7</text></g><g id="shape373-287" transform="translate(707.125,-479.875)"><title>Rectangle.373</title><desc>0x00...or 0xff… (0x12_3000)</desc><rect width="180" height="39.273" x="0" y="744.977" class="st7"/><text x="42.53" y="760.41" class="st3">0x00...or 0xff…<tspan x="61.92" class="st17" dy="1.68em">(</tspan><tspan class="st17">0</tspan><tspan class="st17">x</tspan><tspan class="st17">12</tspan><tspan class="st17">_</tspan><tspan class="st17">3000</tspan><tspan class="st17">)</tspan></text></g><g id="shape374-297" transform="translate(1129.7,-379.736) rotate(37.629)"><title>Curve connect 1.374</title><path d="M1.77 781.94 L1.99 781.66 A32.9168 32.9168 0 0 1 54.16 784.25 A10.2481 10.2481 -180 0 0 68.76 786.61 L69.01 786.35" class="st9"/></g><g id="shape375-304" transform="translate(1196.83,1074.39) rotate(-44.1186) scale(1,-1)"><title>Curve connect 1.375</title><path d="M1.8 781.96 L2.02 781.68 A42.0781 42.0781 0 0 1 68.17 784.25 A21.7612 21.7612 -180 0 0 101.32 786.75 L101.55 786.47" class="st9"/></g><g id="shape376-311" transform="translate(1307.38,118.37) rotate(56.8368)"><title>Curve connect 1.376</title><path d="M2.69 783.15 L3.03 783.02 A123.849 123.849 0 0 1 96.52 784.25 A50.3236 50.3236 -180 0 0 132.68 785.43 L133.02 785.3" class="st9"/></g><g id="shape378-318" transform="translate(987.09,-1.8195) rotate(58.8912)"><title>Curve connect 1.378</title><path d="M2.25 782.4 L2.53 782.17 A57.7232 57.7232 0 0 1 75.85 784.25 A58.2786 58.2786 -180 0 0 149.9 786.33 L150.17 786.1" class="st9"/></g><g id="shape380-325" transform="translate(1644.54,64.3356) rotate(82.5686)"><title>Curve connect 3</title><path d="M0 784.25 A33.9325 33.9325 0 0 1 49.98 781.84 L50.22 782.1" class="st18"/></g><g id="shape381-330" transform="translate(1644.54,345.534) rotate(82.5686)"><title>Curve connect 3.381</title><path d="M-0 784.25 A33.9325 33.9325 0 0 1 49.98 781.84 L50.22 782.1" class="st18"/></g><g id="shape382-335" transform="translate(1644.54,567.159) rotate(82.5686)"><title>Curve connect 3.382</title><path d="M-0 784.25 A33.9325 33.9325 0 0 1 49.98 781.84 L50.22 782.1" class="st18"/></g><g id="shape385-340" transform="translate(45.625,-86.125)"><title>Rectangle.385</title><desc>All memory accesses go through the motherboard bus.Addresses ...</desc><rect width="288" height="72" x="0" y="712.25" class="st13"/><text x="4" y="737.46" class="st5">All memory accesses go through the motherboard <tspan x="4" class="st8" dy="1.2em">bus</tspan>.Addresses in parentheses are for the <tspan x="4" class="st8" dy="1.2em">motherboard bus</tspan>.</text></g><g id="shape386-345" transform="translate(127.125,-236.25)"><title>Rectangle.386</title><desc>0x10_3000, address + 0x10_0000 0x20_3000, address + 0x20_0000...</desc><rect width="191.25" height="54" x="0" y="730.25" class="st13"/><text x="4" y="746.9" class="st11">0x10_3000, address + <tspan class="st19">0</tspan><tspan class="st19">x</tspan><tspan class="st19">10</tspan><tspan class="st19">_</tspan><tspan class="st19">0000</tspan><tspan x="4" class="st8" dy="1.2em">0</tspan>x20_3000, address + <tspan class="st19">0</tspan><tspan class="st19">x</tspan><tspan class="st19">20</tspan><tspan class="st19">_</tspan><tspan class="st19">0000</tspan><tspan x="4" class="st8" dy="1.2em">hartid</tspan>+32</text></g><g id="shape388-360" transform="translate(471.375,-396)"><title>Rectangle.388</title><desc>0x1_3000, address + 0x1_0000 0x2_3000, address + 0x2_0000 har...</desc><rect width="191.25" height="54" x="0" y="730.25" class="st13"/><text x="4" y="746.9" class="st11">0x1_3000, address + <tspan class="st19">0</tspan><tspan class="st19">x</tspan><tspan class="st19">1</tspan><tspan class="st19">_</tspan><tspan class="st19">0000</tspan><tspan x="4" class="st8" dy="1.2em">0</tspan>x2_3000, address + <tspan class="st19">0</tspan><tspan class="st19">x</tspan><tspan class="st19">2</tspan><tspan class="st19">_</tspan><tspan class="st19">0000</tspan><tspan x="4" class="st8" dy="1.2em">hartid</tspan>+16</text></g><g id="shape389-375" transform="translate(470.25,-92.25)"><title>Rectangle.389</title><desc>0x1_3000, address + 0x1_0000 0x2_3000, address + 0x2_0000 har...</desc><rect width="191.25" height="54" x="0" y="730.25" class="st13"/><text x="4" y="746.9" class="st11">0x1_3000, address + <tspan class="st19">0</tspan><tspan class="st19">x</tspan><tspan class="st19">1</tspan><tspan class="st19">_</tspan><tspan class="st19">0000</tspan><tspan x="4" class="st8" dy="1.2em">0</tspan>x2_3000, address + <tspan class="st19">0</tspan><tspan class="st19">x</tspan><tspan class="st19">2</tspan><tspan class="st19">_</tspan><tspan class="st19">0000</tspan><tspan x="4" class="st8" dy="1.2em">hartid</tspan>+16</text></g></g></svg>